<svg xmlns="http://www.w3.org/2000/svg" viewBox="0 0 500 500">
  <path fill="#003056" d="M0 0h500v500H0z"/>
  <g fill="#00d0f5">
    <circle cx="220" cy="416" r="37"/>
    <circle cx="108" cy="402" r="3"/>
    <circle cx="443" cy="220" r="25"/>
    <circle cx="283" cy="168" r="35"/>
    <circle cx="392" cy="381" r="13"/>
    <circle cx="343" cy="246" r="15"/>
    <circle cx="129" cy="285" r="25"/>
    <circle cx="453" cy="118" r="30"/>
    <circle cx="194" cy="127" r="15"/>
    <circle cx="327" cy="48" r="17"/>
    <circle cx="40" cy="341" r="22"/>
    <circle cx="96" cy="41" r="33"/>
    <circle cx="280" cy="373" r="31"/>
    <circle cx="140" cy="185" r="13"/>
    <circle cx="343" cy="320" r="5"/>
    <circle cx="198" cy="254" r="20"/>
    <circle cx="429" cy="316" r="3"/>
    <circle cx="60" cy="462" r="19"/>
    <circle cx="180" cy="45" r="9"/>
    <circle cx="98" cy="116" r="6"/>
    <circle cx="376" cy="161" r="26"/>
    <circle cx="65" cy="225" r="16"/>
    <circle cx="271" cy="292" r="24"/>
    <circle cx="306" cy="453" r="14"/>
    <circle cx="416" cy="460" r="22"/>
    <circle cx="186" cy="349" r="28"/>
    <circle cx="403" cy="61" r="8"/>
    <circle cx="264" cy="95" r="9"/>
    <circle cx="155" cy="460" r="19"/>
  </g>
</svg>