<svg xmlns="http://www.w3.org/2000/svg" viewBox="0 0 500 500">
  <path fill="#180028" d="M0 0h500v500H0z"/>
  <path fill="#2a0046" d="M0 47h36v-9h35V21h36v37h36V43h36v4h35V29h36V17h36v43h35V12h36v17h36v15h36V27h35V17h36v484H0z"/>
  <path fill="#350255" d="M0 57h36v4h35v17h36v2h36v1h36V70h35v6h36V64h36v18h35V69h36V55h72v20h35v1h36v-6 431H0z"/>
  <path fill="#400564" d="M0 92h36v24h35v-5h36V88h36v27h71V88h36v9h36v16h35v6h36v20h36v-2h36v-30h35v22h36v-18 390H0z"/>
  <path fill="#4b0a74" d="M0 169h36v-1h35v-20h36v16h36v-10h36v-9h35v31h36v-14h36v16h35v-45h36v24h36v19h36v-8h35v-17h36v-19 369H0z"/>
  <path fill="#571084" d="M0 196h36v9h35v-31h72v14h36v-13h35v26h36v-25h36v-7h35v4h36v36h36v-6h36v-9h35v14h36v-25 318H0z"/>
  <path fill="#631595" d="M0 214h36v9h35v8h36v13h36v-38h36v32h35v11h36v-37h36v17h35v21h36v-16h36v-15h36v6h35v27h36v-38 287H0z"/>
  <path fill="#6f1ba6" d="M0 275h36v16h35v-7h36v-27h36v22h36v-13h35v-12h36v34h36v-40h35v47h36v-44h36v34h36v6h35v-44h36v254H0z"/>
  <path fill="#7b20b7" d="M0 318h36v-32h35v25h36v-15h36v-11h36v3h35v45h36v-32h36v-14h35v20h36v10h36v-20h36v27h35v-11h36v-5 193H0z"/>
  <path fill="#8826c8" d="M0 368h36v-6h35v-6h36v-7h72v-25h35v32h36v-14h36v7h35v-16h36v34h36v-19h36v1h35v-13h36v165H0z"/>
  <path fill="#952bda" d="M0 402h36v-30h35v1h36v-3h36v-10h36v24h35v9h36v7h36v-8h35v8h36v-39h36v16h36v6h35v-7h36v-1 126H0z"/>
  <path fill="#a231ed" d="M0 403h36v26h35v-24h36v23h36v-15h36v25h35v6h36v-13h36v-32h35v35h36v-26h36v33h36v-23h35v-20h36v103H0z"/>
  <path fill="#af37ff" d="M0 449h36v-7h35v30h36v3h36v-33h36v39h35v-6h36v6h36v-43h35v-3h36v17h36v13h36v10h35v-34h36v60H0z"/>
</svg>