<svg xmlns="http://www.w3.org/2000/svg" viewBox="0 0 500 500">
  <path fill="#001e35" d="M0 0h500v500H0z"/>
  <path fill="#651235" d="M0 30l6.3 2.2c6.4 2.1 19 6.5 31.9 6.6C51 39 64 35 76.8 36.7c12.9 1.6 25.5 9 38.4 5.1C128 38 141 23 153.8 21.7c12.9-1.4 25.5 11 38.4 18.3 12.8 7.3 25.8 9.7 38.6 5 12.9-4.7 25.5-16.3 38.4-23.2C282 15 295 13 307.8 12.3c12.9-.6 25.5 0 38.4.9 12.8.8 25.8 1.8 38.6 10 12.9 8.1 25.5 23.5 38.4 31.1C436 62 449 62 461.8 57.2c12.9-4.9 25.5-14.5 31.9-19.4L500 33v468H0z"/>
  <path fill="#721a3b" d="M0 75l6.3-3.3c6.4-3.4 19-10 31.9-12.2 12.8-2.2 25.8.2 38.6 5.8C89.7 71 102.3 80 115.2 83.7c12.8 3.6 25.8 2 38.6 2.5 12.9.5 25.5 3.1 38.4-1C205 81 218 70 230.8 70.2c12.9.1 25.5 11.5 38.4 10.5 12.8-1 25.8-14.4 38.6-13.5 12.9.8 25.5 15.8 38.4 16.5 12.8.6 25.8-13 38.6-16.9 12.9-3.8 25.5 2.2 38.4 5 12.8 2.9 25.8 2.5 38.6 4.2 12.9 1.7 25.5 5.3 31.9 7.2L500 85v416H0z"/>
  <path fill="#7f2240" d="M0 96l6.3 7.3c6.4 7.4 19 22 31.9 22.5 12.8.5 25.8-13.1 38.6-14.1 12.9-1 25.5 10.6 38.4 14.3 12.8 3.7 25.8-.7 38.6-6.5 12.9-5.8 25.5-13.2 38.4-9.3C205 114 218 129 230.8 131.5c12.9 2.5 25.5-7.5 38.4-10.3 12.8-2.9 25.8 1.5 38.6 5.3 12.9 3.8 25.5 7.2 38.4 3.8 12.8-3.3 25.8-13.3 38.6-15 12.9-1.6 25.5 5 38.4 6.7 12.8 1.7 25.8-1.7 38.6-8.5 12.9-6.8 25.5-17.2 31.9-22.3L500 86v415H0z"/>
  <path fill="#8d2946" d="M0 132l6.3 6.8c6.4 6.9 19 20.5 31.9 25.9C51 170 64 167 76.8 159c12.9-8 25.5-21 38.4-18.7 12.8 2.4 25.8 20 38.6 27.2 12.9 7.2 25.5 3.8 38.4-1.8C205 160 218 152 230.8 149.8c12.9-2.1 25.5 1.5 38.4-.1 12.8-1.7 25.8-8.7 38.6-7.9 12.9.9 25.5 9.5 38.4 8 12.8-1.5 25.8-13.1 38.6-16.3 12.9-3.2 25.5 2.2 38.4 10.2 12.8 8 25.8 18.6 38.6 16.1 12.9-2.5 25.5-18.1 31.9-26l6.3-7.8v375H0z"/>
  <path fill="#9b314b" d="M0 212l6.3-1.5c6.4-1.5 19-4.5 31.9-11C51 193 64 183 76.8 179.7c12.9-3.4 25.5 0 38.4 2.1 12.8 2.2 25.8 3.2 38.6 1.4 12.9-1.9 25.5-6.5 38.4-10.7 12.8-4.2 25.8-7.8 38.6-5.2 12.9 2.7 25.5 11.7 38.4 20.4 12.8 8.6 25.8 17 38.6 18.1 12.9 1.2 25.5-4.8 38.4-10.1 12.8-5.4 25.8-10 38.6-6.5 12.9 3.5 25.5 15.1 38.4 19.6 12.8 4.5 25.8 1.9 38.6-3.8 12.9-5.7 25.5-14.3 31.9-18.7l6.3-4.3v319H0z"/>
  <path fill="#a83a50" d="M0 206l6.3 8.5c6.4 8.5 19 25.5 31.9 29.8 12.8 4.4 25.8-4 38.6-12 12.9-8 25.5-15.6 38.4-14.1 12.8 1.5 25.8 12.1 38.6 13 12.9.8 25.5-8.2 38.4-7 12.8 1.1 25.8 12.5 38.6 16.1 12.9 3.7 25.5-.3 38.4-.1 12.8.1 25.8 4.5 38.6 2.6 12.9-1.8 25.5-9.8 38.4-15.1 12.8-5.4 25.8-8 38.6-7.5 12.9.5 25.5 4.1 38.4 8.3 12.8 4.2 25.8 8.8 38.6 12.8 12.9 4 25.5 7.4 31.9 9l6.3 1.7v249H0z"/>
  <path fill="#b64254" d="M0 252l6.3-1c6.4-1 19-3 31.9.8 12.8 3.9 25.8 13.5 38.6 18.4 12.9 4.8 25.5 4.8 38.4-.5 12.8-5.4 25.8-16 38.6-16.2 12.9-.2 25.5 10.2 38.4 15.2 12.8 5 25.8 4.6 38.6 7.5 12.9 2.8 25.5 8.8 38.4 11.1 12.8 2.4 25.8 1 38.6 1 12.9 0 25.5 1.4 38.4-5.3 12.8-6.7 25.8-21.3 38.6-27.7 12.9-6.3 25.5-4.3 38.4-2.8 12.8 1.5 25.8 2.5 38.6 5 12.9 2.5 25.5 6.5 31.9 8.5l6.3 2v233H0z"/>
  <path fill="#c44b59" d="M0 290l6.3 6.5c6.4 6.5 19 19.5 31.9 23.2 12.8 3.6 25.8-2 38.6-6.7 12.9-4.7 25.5-8.3 38.4-6 12.8 2.3 25.8 10.7 38.6 6.5 12.9-4.2 25.5-20.8 38.4-21 12.8-.2 25.8 16.2 38.6 26 12.9 9.8 25.5 13.2 38.4 13.7 12.8.5 25.8-1.9 38.6-10.7 12.9-8.8 25.5-24.2 38.4-30.8 12.8-6.7 25.8-4.7 38.6-.5 12.9 4.1 25.5 10.5 38.4 10.3 12.8-.2 25.8-6.8 38.6-4.8 12.9 2 25.5 12.6 31.9 18l6.3 5.3v182H0z"/>
  <path fill="#d1555d" d="M0 352l6.3-1.5c6.4-1.5 19-4.5 31.9-5.2 12.8-.6 25.8 1 38.6 2.4 12.9 1.3 25.5 2.3 38.4 7 12.8 4.6 25.8 13 38.6 10.1 12.9-2.8 25.5-16.8 38.4-24.1 12.8-7.4 25.8-8 38.6-10.2 12.9-2.2 25.5-5.8 38.4.8C282 338 295 355 307.8 356c12.9 1 25.5-14 38.4-21.7 12.8-7.6 25.8-8 38.6-9.8 12.9-1.8 25.5-5.2 38.4-3 12.8 2.2 25.8 9.8 38.6 17.7 12.9 7.8 25.5 15.8 31.9 19.8l6.3 4v138H0z"/>
  <path fill="#df5e61" d="M0 387l6.3-3.7c6.4-3.6 19-11 31.9-16.1C51 362 64 359 76.8 365c12.9 6 25.5 21 38.4 21 12.8 0 25.8-15 38.6-20 12.9-5 25.5 0 38.4 4.2 12.8 4.1 25.8 7.5 38.6 10 12.9 2.5 25.5 4.1 38.4 1.8 12.8-2.3 25.8-8.7 38.6-9.5 12.9-.8 25.5 3.8 38.4 1.8 12.8-2 25.8-10.6 38.6-14.5 12.9-3.8 25.5-2.8 38.4 3.5 12.8 6.4 25.8 18 38.6 18.2 12.9.2 25.5-11.2 31.9-16.8l6.3-5.7v142H0z"/>
  <path fill="#ed6865" d="M0 409l6.3-2.2c6.4-2.1 19-6.5 31.9.2 12.8 6.7 25.8 24.3 38.6 30.2 12.9 5.8 25.5-.2 38.4-8 12.8-7.9 25.8-17.5 38.6-23.9 12.9-6.3 25.5-9.3 38.4-1.8 12.8 7.5 25.8 25.5 38.6 35 12.9 9.5 25.5 10.5 38.4 2.3 12.8-8.1 25.8-25.5 38.6-33.8 12.9-8.3 25.5-7.7 38.4-8 12.8-.3 25.8-1.7 38.6-.2 12.9 1.5 25.5 5.9 38.4 5.2 12.8-.7 25.8-6.3 38.6-5.2 12.9 1.2 25.5 9.2 31.9 13.2l6.3 4v85H0z"/>
  <path fill="#fa7268" d="M0 434l6.3 5.5c6.4 5.5 19 16.5 31.9 23.2 12.8 6.6 25.8 9 38.6 12.3 12.9 3.3 25.5 7.7 38.4 10.2 12.8 2.5 25.8 3.1 38.6-4.7 12.9-7.8 25.5-24.2 38.4-33.2 12.8-9 25.8-10.6 38.6-9.6 12.9 1 25.5 4.6 38.4 11.5C282 456 295 466 307.8 471.5c12.9 5.5 25.5 6.5 38.4 0C359 465 372 451 384.8 447.8c12.9-3.1 25.5 4.5 38.4 9.7 12.8 5.2 25.8 7.8 38.6 3.8 12.9-4 25.5-14.6 31.9-20l6.3-5.3v65H0z"/>
</svg>